<?xml version="1.0" encoding="UTF-8"?>
<!DOCTYPE svg PUBLIC "-//W3C//DTD SVG 1.1//EN" "http://www.w3.org/Graphics/SVG/1.1/DTD/svg11.dtd">
<svg xmlns="http://www.w3.org/2000/svg" version="1.1" width="650px" height="610px" style="shape-rendering:geometricPrecision; text-rendering:geometricPrecision; image-rendering:optimizeQuality; fill-rule:evenodd; clip-rule:evenodd" xmlns:xlink="http://www.w3.org/1999/xlink">
<g><path style="opacity:0.992" fill="#19969b" d="M 538.5,308.5 C 522.585,294.088 507.085,279.088 492,263.5C 491.536,264.094 491.369,264.761 491.5,265.5C 471.986,226.403 440.319,209.236 396.5,214C 382.327,216.422 369.66,222.089 358.5,231C 345.319,244.347 331.986,257.514 318.5,270.5C 303.953,255.785 288.953,241.618 273.5,228C 251.556,214.244 227.889,210.244 202.5,216C 170.047,226.119 149.547,247.619 141,280.5C 134.728,317.884 146.561,347.884 176.5,370.5C 176.062,370.435 175.728,370.601 175.5,371C 222.368,417.701 269.035,464.535 315.5,511.5C 247.655,511.157 191.488,485.491 147,434.5C 106.381,385.961 89.0474,329.961 95,266.5C 99.2373,220.049 116.571,179.383 147,144.5C 206.244,79.197 279.411,55.0303 366.5,72C 416.801,84.3186 458.301,110.485 491,150.5C 527.253,196.806 543.086,249.472 538.5,308.5 Z"/></g>
<g><path style="opacity:1" fill="#fcfdfd" d="M 491.5,265.5 C 506.002,310.36 494.002,346.194 455.5,373C 422.237,390.071 390.237,388.071 359.5,367C 345.682,354.015 332.015,340.849 318.5,327.5C 304.319,341.515 289.985,355.349 275.5,369C 249.535,385.782 221.869,389.116 192.5,379C 186.981,376.409 181.648,373.575 176.5,370.5C 146.561,347.884 134.728,317.884 141,280.5C 149.547,247.619 170.047,226.119 202.5,216C 227.889,210.244 251.556,214.244 273.5,228C 288.953,241.618 303.953,255.785 318.5,270.5C 331.986,257.514 345.319,244.347 358.5,231C 369.66,222.089 382.327,216.422 396.5,214C 440.319,209.236 471.986,226.403 491.5,265.5 Z"/></g>
<g><path style="opacity:1" fill="#18797d" d="M 215.5,252.5 C 230.852,250.586 244.519,254.419 256.5,264C 267.402,275.733 278.402,287.233 289.5,298.5C 277.409,312.094 264.742,325.26 251.5,338C 240.474,345.027 228.474,347.36 215.5,345C 187.946,336.745 175.779,318.245 179,289.5C 184.015,269.986 196.182,257.652 215.5,252.5 Z"/></g>
<g><path style="opacity:1" fill="#197a7e" d="M 404.5,251.5 C 432.226,250.41 450.059,263.077 458,289.5C 460.485,318.674 447.652,337.174 419.5,345C 404.86,347.007 391.86,343.34 380.5,334C 368.791,322.625 357.458,310.959 346.5,299C 358.458,286.041 370.791,273.374 383.5,261C 389.843,256.172 396.843,253.006 404.5,251.5 Z"/></g>
<g><path style="opacity:0.995" fill="#14787c" d="M 538.5,308.5 C 532.826,369.017 507.159,419.184 461.5,459C 419.587,494.808 370.92,512.308 315.5,511.5C 269.035,464.535 222.368,417.701 175.5,371C 175.728,370.601 176.062,370.435 176.5,370.5C 181.648,373.575 186.981,376.409 192.5,379C 221.869,389.116 249.535,385.782 275.5,369C 289.985,355.349 304.319,341.515 318.5,327.5C 332.015,340.849 345.682,354.015 359.5,367C 390.237,388.071 422.237,390.071 455.5,373C 494.002,346.194 506.002,310.36 491.5,265.5C 491.369,264.761 491.536,264.094 492,263.5C 507.085,279.088 522.585,294.088 538.5,308.5 Z"/></g>
<g><path style="opacity:1" fill="#fafcfc" d="M 409.5,269.5 C 413.803,268.796 417.303,270.13 420,273.5C 421.41,279.379 421.91,285.379 421.5,291.5C 426.511,291.334 431.511,291.501 436.5,292C 443.218,297.789 442.885,303.123 435.5,308C 430.845,308.499 426.179,308.666 421.5,308.5C 421.666,313.511 421.499,318.511 421,323.5C 419.749,328.084 416.749,330.417 412,330.5C 409.077,330.205 406.743,328.871 405,326.5C 403.639,320.593 403.139,314.593 403.5,308.5C 396.716,308.92 390.05,308.42 383.5,307C 379.301,301.719 379.634,296.719 384.5,292C 390.5,291.667 396.5,291.333 402.5,291C 403.307,285.917 403.807,280.75 404,275.5C 405.36,272.977 407.193,270.977 409.5,269.5 Z"/></g>
<g><path style="opacity:1" fill="#fcfdfd" d="M 203.5,290.5 C 220.503,290.333 237.503,290.5 254.5,291C 258.861,293.226 260.361,296.726 259,301.5C 258.226,303.939 256.726,305.773 254.5,307C 237.5,307.667 220.5,307.667 203.5,307C 196.868,301.423 196.868,295.923 203.5,290.5 Z"/></g>
</svg>
