<?xml version="1.0" encoding="UTF-8"?>
<!DOCTYPE svg PUBLIC "-//W3C//DTD SVG 1.1//EN" "http://www.w3.org/Graphics/SVG/1.1/DTD/svg11.dtd">
<svg xmlns="http://www.w3.org/2000/svg" version="1.1" width="1600px" height="1600px" style="shape-rendering:geometricPrecision; text-rendering:geometricPrecision; image-rendering:optimizeQuality; fill-rule:evenodd; clip-rule:evenodd" xmlns:xlink="http://www.w3.org/1999/xlink">
<g><path style="opacity:0.996" fill="#fd3b00" d="M 1433.5,333.5 C 1222.16,399.836 1010.83,466.169 799.5,532.5C 588.554,466.405 377.887,399.739 167.5,332.5C 377.997,265.669 588.664,199.003 799.5,132.5C 1011.07,199.138 1222.41,266.138 1433.5,333.5 Z"/></g>
<g><path style="opacity:0.996" fill="#dd2c00" d="M 167.5,332.5 C 377.887,399.739 588.554,466.405 799.5,532.5C 799.167,843.667 799.5,1154.67 800.5,1465.5C 800.44,1466.04 800.107,1466.38 799.5,1466.5C 588.261,1377.63 377.094,1288.63 166,1199.5C 165.833,1055 165.667,910.5 165.5,766C 165.5,621.165 166.167,476.665 167.5,332.5 Z"/></g>
<g><path style="opacity:1" fill="#a52005" d="M 1433.5,333.5 C 1433.67,622.167 1433.5,910.834 1433,1199.5C 1222.33,1288.58 1011.5,1377.25 800.5,1465.5C 799.5,1154.67 799.167,843.667 799.5,532.5C 1010.83,466.169 1222.16,399.836 1433.5,333.5 Z"/></g>
<g><path style="opacity:1" fill="#fdfcfc" d="M 1329.5,533.5 C 1330.5,533.5 1331.5,533.5 1332.5,533.5C 1305.91,719.249 1278.74,904.916 1251,1090.5C 1249.58,1091.46 1248.08,1092.29 1246.5,1093C 1228.34,1100.75 1210.01,1107.92 1191.5,1114.5C 1168.57,993.528 1145.73,872.528 1123,751.5C 1098.72,891.756 1074.72,1032.09 1051,1172.5C 1030.39,1181.89 1009.55,1190.89 988.5,1199.5C 958.995,1027.97 929.328,856.467 899.5,685C 899.645,684.228 899.978,683.561 900.5,683C 922.349,674.995 944.349,667.495 966.5,660.5C 985.097,788.941 1004.43,917.274 1024.5,1045.5C 1048.27,902.159 1072.1,758.826 1096,615.5C 1113.48,608.395 1131.31,602.395 1149.5,597.5C 1171.93,721.501 1194.43,845.501 1217,969.5C 1235.88,831.339 1254.21,693.005 1272,554.5C 1291.21,547.377 1310.38,540.377 1329.5,533.5 Z"/></g>
<g><path style="opacity:1" fill="#fdfdfc" d="M 333.5,947.5 C 332.892,942.056 333.558,937.056 335.5,932.5C 356.808,940.15 378.141,947.817 399.5,955.5C 402.912,1024.06 437.579,1067.56 503.5,1086C 533.719,1093.33 552.552,1082.16 560,1052.5C 565.445,1018.85 556.779,989.516 534,964.5C 527.5,958 521,951.5 514.5,945C 487.167,923 459.833,901 432.5,879C 410.058,858.572 390.558,835.739 374,810.5C 344.966,762.471 337.966,711.471 353,657.5C 371.198,615.974 403.031,596.807 448.5,600C 503.241,606.78 547.741,631.614 582,674.5C 615.359,716.571 632.025,764.571 632,818.5C 608.796,811.071 585.629,803.404 562.5,795.5C 562.451,763.923 552.618,735.923 533,711.5C 509.311,686.267 480.145,674.767 445.5,677C 426.628,682.881 416.128,695.715 414,715.5C 410.994,736.137 414.661,755.47 425,773.5C 438.002,793.173 453.835,810.34 472.5,825C 499.077,844.129 524.743,864.463 549.5,886C 582.175,915.66 606.508,950.993 622.5,992C 631.885,1021.47 635.051,1051.63 632,1082.5C 629.567,1103.48 622.234,1122.48 610,1139.5C 595.607,1155.11 577.774,1163.95 556.5,1166C 538.798,1167.22 521.465,1165.22 504.5,1160C 417.75,1130.25 362.25,1071.08 338,982.5C 335.913,970.9 334.413,959.234 333.5,947.5 Z"/></g>
<g><path style="opacity:1" fill="#e8917c" d="M 335.5,932.5 C 333.558,937.056 332.892,942.056 333.5,947.5C 332.512,942.36 332.179,937.026 332.5,931.5C 333.791,931.263 334.791,931.596 335.5,932.5 Z"/></g>
</svg>
