<?xml version="1.0" standalone="no"?>
<!DOCTYPE svg PUBLIC "-//W3C//DTD SVG 20010904//EN"
 "http://www.w3.org/TR/2001/REC-SVG-20010904/DTD/svg10.dtd">
<svg version="1.0" xmlns="http://www.w3.org/2000/svg"
 width="1600.000000pt" height="1600.000000pt" viewBox="0 0 1600.000000 1600.000000"
 preserveAspectRatio="xMidYMid meet">

<g transform="translate(0.000000,1600.000000) scale(0.100000,-0.100000)"
fill="#000000" stroke="none">
<path d="M4834 13666 c-1727 -546 -3146 -996 -3152 -1000 -18 -11 -17 -8662 0
-8669 7 -3 1430 -602 3163 -1331 1995 -841 3157 -1325 3170 -1322 11 3 1435
601 3165 1330 l3145 1324 3 4331 c2 4116 1 4331 -15 4339 -35 18 -6298 1992
-6318 1991 -11 0 -1433 -447 -3161 -993z m8496 -3018 c0 -14 -798 -5503 -806
-5538 -4 -22 -36 -38 -301 -147 -164 -67 -298 -121 -299 -120 -1 1 -156 816
-345 1810 -201 1057 -347 1801 -351 1790 -4 -10 -165 -949 -358 -2088 -193
-1138 -353 -2077 -356 -2085 -4 -13 -622 -275 -630 -267 -8 9 -882 5153 -876
5158 15 15 646 229 653 221 3 -4 136 -870 295 -1924 159 -1055 291 -1918 294
-1918 3 0 162 957 354 2128 192 1170 352 2138 356 2152 6 22 32 34 256 112
137 48 256 90 265 93 13 5 62 -252 355 -1865 187 -1033 342 -1862 346 -1853 4
10 126 938 273 2063 146 1125 267 2055 270 2066 4 18 51 37 292 122 159 56
294 101 301 101 6 1 12 -4 12 -11z m-8655 -678 c762 -160 1376 -782 1585
-1604 57 -224 93 -566 58 -554 -7 3 -167 56 -355 119 l-342 113 -6 76 c-30
396 -160 675 -406 873 -98 80 -261 164 -394 204 -79 23 -108 27 -230 27 -139
1 -141 1 -206 -31 -158 -78 -238 -246 -239 -500 -1 -370 223 -677 820 -1121
603 -449 945 -812 1148 -1217 158 -315 222 -595 222 -965 0 -266 -35 -451
-117 -615 -115 -230 -279 -360 -529 -422 -107 -26 -329 -23 -474 6 -329 65
-677 232 -964 460 -472 377 -812 961 -890 1527 -17 128 -31 334 -23 334 26 0
665 -235 675 -247 7 -10 12 -47 12 -88 0 -229 105 -530 252 -726 174 -231 480
-419 788 -484 277 -58 470 50 533 300 24 93 30 200 17 318 -39 385 -219 620
-839 1095 -625 480 -915 798 -1127 1237 -110 228 -163 422 -185 675 -28 341
35 639 185 864 136 205 337 326 611 370 70 11 322 -4 420 -24z"/>
</g>
</svg>
